HIERARCHY
ROOT mixamorig:Hips
{
	OFFSET 0.000000 201.639420 0.000000
	CHANNELS 6 Xposition Yposition Zposition Xrotation Yrotation Zrotation
	JOINT mixamorig:Spine
	{
		OFFSET 0.006200 19.524994 -2.481800
		CHANNELS 3 Xrotation Yrotation Zrotation
		JOINT mixamorig:Spine1
		{
			OFFSET -0.000900 22.835007 -2.825400
			CHANNELS 3 Xrotation Yrotation Zrotation
			JOINT mixamorig:Spine2
			{
				OFFSET -0.020600 26.552490 -3.193300
				CHANNELS 3 Xrotation Yrotation Zrotation
				JOINT mixamorig:Neck
				{
					OFFSET -0.060000 30.701813 1.352200
					CHANNELS 3 Xrotation Yrotation Zrotation
					JOINT mixamorig:Head
					{
						OFFSET -0.087200 22.547607 3.670900
						CHANNELS 3 Xrotation Yrotation Zrotation
						JOINT mixamorig:HeadTop_End
						{
							OFFSET -0.830600 40.355194 7.893500
							CHANNELS 3 Xrotation Yrotation Zrotation
							End Site
							{
								OFFSET 0.000000 30.592346 0.000000
							}
						}
						JOINT mixamorig:RightEye
						{
							OFFSET -6.302100 18.118591 16.197100
							CHANNELS 3 Xrotation Yrotation Zrotation
							End Site
							{
								OFFSET 0.000000 30.592346 0.000000
							}
						}
						JOINT mixamorig:LeftEye
						{
							OFFSET 6.741500 18.382690 16.401899
							CHANNELS 3 Xrotation Yrotation Zrotation
							End Site
							{
								OFFSET 0.000000 30.592346 0.000000
							}
						}
					}
				}
				JOINT mixamorig:LeftShoulder
				{
					OFFSET 11.924900 18.230499 1.425400
					CHANNELS 3 Xrotation Yrotation Zrotation
					JOINT mixamorig:LeftArm
					{
						OFFSET 25.435989 -0.697632 -5.229300
						CHANNELS 3 Xrotation Yrotation Zrotation
						JOINT mixamorig:LeftForeArm
						{
							OFFSET 54.684776 0.000000 0.000000
							CHANNELS 3 Xrotation Yrotation Zrotation
							JOINT mixamorig:LeftHand
							{
								OFFSET 55.098175 0.000000 0.000000
								CHANNELS 3 Xrotation Yrotation Zrotation
								JOINT mixamorig:LeftHandMiddle1
								{
									OFFSET 23.369751 0.000000 0.000000
									CHANNELS 3 Xrotation Yrotation Zrotation
									JOINT mixamorig:LeftHandMiddle2
									{
										OFFSET 6.378677 0.000000 0.000000
										CHANNELS 3 Xrotation Yrotation Zrotation
										JOINT mixamorig:LeftHandMiddle3
										{
											OFFSET 6.148331 0.000000 0.000000
											CHANNELS 3 Xrotation Yrotation Zrotation
											JOINT mixamorig:LeftHandMiddle4
											{
												OFFSET 6.582504 0.000000 0.000000
												CHANNELS 3 Xrotation Yrotation Zrotation
												End Site
												{
													OFFSET -1.168900 6.395691 1.028606
												}
											}
										}
									}
								}
								JOINT mixamorig:LeftHandThumb1
								{
									OFFSET 7.235672 -3.848206 5.434273
									CHANNELS 3 Xrotation Yrotation Zrotation
									JOINT mixamorig:LeftHandThumb2
									{
										OFFSET 6.568451 -3.792297 3.792300
										CHANNELS 3 Xrotation Yrotation Zrotation
										JOINT mixamorig:LeftHandThumb3
										{
											OFFSET 6.063080 -3.500519 3.500518
											CHANNELS 3 Xrotation Yrotation Zrotation
											JOINT mixamorig:LeftHandThumb4
											{
												OFFSET 4.793182 -2.767334 2.767349
												CHANNELS 3 Xrotation Yrotation Zrotation
												End Site
												{
													OFFSET 0.101639 6.054260 1.275483
												}
											}
										}
									}
								}
								JOINT mixamorig:LeftHandIndex1
								{
									OFFSET 23.101074 -0.309540 4.992809
									CHANNELS 3 Xrotation Yrotation Zrotation
									JOINT mixamorig:LeftHandIndex2
									{
										OFFSET 6.226883 0.000000 0.000000
										CHANNELS 3 Xrotation Yrotation Zrotation
										JOINT mixamorig:LeftHandIndex3
										{
											OFFSET 6.094330 0.000000 0.000000
											CHANNELS 3 Xrotation Yrotation Zrotation
											JOINT mixamorig:LeftHandIndex4
											{
												OFFSET 5.482605 0.000000 0.000000
												CHANNELS 3 Xrotation Yrotation Zrotation
												End Site
												{
													OFFSET -1.427902 5.233032 0.797164
												}
											}
										}
									}
								}
								JOINT mixamorig:LeftHandRing1
								{
									OFFSET 22.299240 0.021149 -3.964172
									CHANNELS 3 Xrotation Yrotation Zrotation
									JOINT mixamorig:LeftHandRing2
									{
										OFFSET 6.321869 0.000000 0.000000
										CHANNELS 3 Xrotation Yrotation Zrotation
										JOINT mixamorig:LeftHandRing3
										{
											OFFSET 5.899796 0.000000 0.000000
											CHANNELS 3 Xrotation Yrotation Zrotation
											JOINT mixamorig:LeftHandRing4
											{
												OFFSET 6.517899 0.000000 0.000000
												CHANNELS 3 Xrotation Yrotation Zrotation
												End Site
												{
													OFFSET -1.637299 6.232208 0.980890
												}
											}
										}
									}
								}
								JOINT mixamorig:LeftHandPinky1
								{
									OFFSET 20.463791 -0.302338 -8.562233
									CHANNELS 3 Xrotation Yrotation Zrotation
									JOINT mixamorig:LeftHandPinky2
									{
										OFFSET 6.908646 0.000000 0.000000
										CHANNELS 3 Xrotation Yrotation Zrotation
										JOINT mixamorig:LeftHandPinky3
										{
											OFFSET 4.622849 0.000000 0.000000
											CHANNELS 3 Xrotation Yrotation Zrotation
											JOINT mixamorig:LeftHandPinky4
											{
												OFFSET 5.216080 0.000000 0.000000
												CHANNELS 3 Xrotation Yrotation Zrotation
												End Site
												{
													OFFSET -0.606308 5.116241 0.814926
												}
											}
										}
									}
								}
							}
						}
					}
				}
				JOINT mixamorig:RightShoulder
				{
					OFFSET -12.001300 18.284088 1.348900
					CHANNELS 3 Xrotation Yrotation Zrotation
					JOINT mixamorig:RightArm
					{
						OFFSET -25.308500 -0.751312 -5.164599
						CHANNELS 3 Xrotation Yrotation Zrotation
						JOINT mixamorig:RightForeArm
						{
							OFFSET -54.684429 0.000000 0.000000
							CHANNELS 3 Xrotation Yrotation Zrotation
							JOINT mixamorig:RightHand
							{
								OFFSET -55.150291 0.000000 0.000000
								CHANNELS 3 Xrotation Yrotation Zrotation
								JOINT mixamorig:RightHandMiddle1
								{
									OFFSET -23.317566 0.000000 0.000000
									CHANNELS 3 Xrotation Yrotation Zrotation
									JOINT mixamorig:RightHandMiddle2
									{
										OFFSET -6.378403 0.000000 0.000000
										CHANNELS 3 Xrotation Yrotation Zrotation
										JOINT mixamorig:RightHandMiddle3
										{
											OFFSET -6.148193 0.000000 0.000000
											CHANNELS 3 Xrotation Yrotation Zrotation
											JOINT mixamorig:RightHandMiddle4
											{
												OFFSET -6.583389 0.000000 0.000000
												CHANNELS 3 Xrotation Yrotation Zrotation
												End Site
												{
													OFFSET 1.171692 6.395905 1.029786
												}
											}
										}
									}
								}
								JOINT mixamorig:RightHandThumb1
								{
									OFFSET -7.190521 -3.860474 5.435846
									CHANNELS 3 Xrotation Yrotation Zrotation
									JOINT mixamorig:RightHandThumb2
									{
										OFFSET -6.567429 -3.791718 3.791708
										CHANNELS 3 Xrotation Yrotation Zrotation
										JOINT mixamorig:RightHandThumb3
										{
											OFFSET -6.062469 -3.500153 3.500166
											CHANNELS 3 Xrotation Yrotation Zrotation
											JOINT mixamorig:RightHandThumb4
											{
												OFFSET -4.792618 -2.767029 2.767022
												CHANNELS 3 Xrotation Yrotation Zrotation
												End Site
												{
													OFFSET -0.100327 6.053253 1.276754
												}
											}
										}
									}
								}
								JOINT mixamorig:RightHandIndex1
								{
									OFFSET -23.048981 -0.310791 4.992554
									CHANNELS 3 Xrotation Yrotation Zrotation
									JOINT mixamorig:RightHandIndex2
									{
										OFFSET -6.227539 0.000000 0.000000
										CHANNELS 3 Xrotation Yrotation Zrotation
										JOINT mixamorig:RightHandIndex3
										{
											OFFSET -6.095047 0.000000 0.000000
											CHANNELS 3 Xrotation Yrotation Zrotation
											JOINT mixamorig:RightHandIndex4
											{
												OFFSET -5.484772 0.000000 0.000000
												CHANNELS 3 Xrotation Yrotation Zrotation
												End Site
												{
													OFFSET 1.420593 5.237305 0.797056
												}
											}
										}
									}
								}
								JOINT mixamorig:RightHandRing1
								{
									OFFSET -22.246323 0.020569 -3.963762
									CHANNELS 3 Xrotation Yrotation Zrotation
									JOINT mixamorig:RightHandRing2
									{
										OFFSET -6.322128 0.000000 0.000000
										CHANNELS 3 Xrotation Yrotation Zrotation
										JOINT mixamorig:RightHandRing3
										{
											OFFSET -5.900024 0.000000 0.000000
											CHANNELS 3 Xrotation Yrotation Zrotation
											JOINT mixamorig:RightHandRing4
											{
												OFFSET -6.518356 0.000000 0.000000
												CHANNELS 3 Xrotation Yrotation Zrotation
												End Site
												{
													OFFSET 1.636398 6.232697 0.982186
												}
											}
										}
									}
								}
								JOINT mixamorig:RightHandPinky1
								{
									OFFSET -20.411011 -0.303314 -8.561701
									CHANNELS 3 Xrotation Yrotation Zrotation
									JOINT mixamorig:RightHandPinky2
									{
										OFFSET -6.907349 0.000000 0.000000
										CHANNELS 3 Xrotation Yrotation Zrotation
										JOINT mixamorig:RightHandPinky3
										{
											OFFSET -4.623840 0.000000 0.000000
											CHANNELS 3 Xrotation Yrotation Zrotation
											JOINT mixamorig:RightHandPinky4
											{
												OFFSET -5.218353 0.000000 0.000000
												CHANNELS 3 Xrotation Yrotation Zrotation
												End Site
												{
													OFFSET 0.602097 5.118835 0.816273
												}
											}
										}
									}
								}
							}
						}
					}
				}
			}
		}
	}
	JOINT mixamorig:LeftUpLeg
	{
		OFFSET 18.168400 -13.561905 -0.039000
		CHANNELS 3 Xrotation Yrotation Zrotation
		JOINT mixamorig:LeftLeg
		{
			OFFSET 0.577358 -80.825211 -3.695000
			CHANNELS 3 Xrotation Yrotation Zrotation
			JOINT mixamorig:LeftFoot
			{
				OFFSET -0.577356 -83.370262 -6.520700
				CHANNELS 3 Xrotation Yrotation Zrotation
				JOINT mixamorig:LeftToeBase
				{
					OFFSET 0.750401 -20.798306 25.135401
					CHANNELS 3 Xrotation Yrotation Zrotation
					JOINT mixamorig:LeftToe_End
					{
						OFFSET -0.000500 0.001200 19.917799
						CHANNELS 3 Xrotation Yrotation Zrotation
						End Site
						{
							OFFSET 0.000000 19.917805 0.000000
						}
					}
				}
			}
		}
	}
	JOINT mixamorig:RightUpLeg
	{
		OFFSET -18.162500 -13.585098 -0.041000
		CHANNELS 3 Xrotation Yrotation Zrotation
		JOINT mixamorig:RightLeg
		{
			OFFSET -0.595024 -80.945297 -3.631900
			CHANNELS 3 Xrotation Yrotation Zrotation
			JOINT mixamorig:RightFoot
			{
				OFFSET 0.595024 -83.218193 -6.561200
				CHANNELS 3 Xrotation Yrotation Zrotation
				JOINT mixamorig:RightToeBase
				{
					OFFSET -0.753601 -20.807106 25.115000
					CHANNELS 3 Xrotation Yrotation Zrotation
					JOINT mixamorig:RightToe_End
					{
						OFFSET 0.000299 0.001700 19.918200
						CHANNELS 3 Xrotation Yrotation Zrotation
						End Site
						{
							OFFSET 0.000000 19.918203 0.000000
						}
					}
				}
			}
		}
	}
}
MOTION
Frames: 6
Frame Time: 0.033333
0.298018 199.666153 0.028468 0.228711 -7.038660 -1.649773 3.540901 2.112727 4.586317 3.474668 1.798389 2.355448 3.496163 1.739619 2.372444 1.840790 -0.183729 0.693757 -2.948940 1.200679 -4.503501 -0.000000 0.000000 0.000001 -0.000000 0.000000 0.000001 -0.000000 0.000000 0.000001 -3.721314 -16.479927 -12.042248 -0.354154 8.744858 -71.825115 0.000011 -40.859052 0.000020 -4.339853 11.313786 -3.584092 -0.913705 -1.049437 -13.654111 1.709107 4.136299 -44.886104 0.637198 2.658947 -26.948073 -0.000001 0.000001 -0.000004 16.264354 -0.381865 -3.711112 4.388127 39.624325 13.921532 -9.088669 -15.913465 -0.798635 -0.000004 0.000001 0.000002 -0.222616 0.315127 -6.958844 1.244617 3.611595 -38.019152 0.780248 2.923026 -29.885445 0.000002 -0.000001 -0.000001 0.920980 5.671277 -20.986255 2.892642 5.050283 -59.583845 0.771264 2.907356 -29.708782 -0.000001 0.000002 0.000001 -0.267506 2.492591 -20.153436 3.604089 5.403793 -67.381210 0.179001 1.438550 -14.185200 -0.000001 -0.000001 -0.000001 -3.287430 13.853908 14.378675 -4.496480 -22.315251 63.325033 -0.000000 29.835632 0.000014 11.268021 -36.669243 6.920393 5.090940 -7.824859 60.694639 4.692230 -4.657059 90.431766 1.732769 -3.626078 51.071114 0.000002 0.000001 -0.000000 0.189256 -15.960264 -7.606065 6.849512 -1.479125 -9.046315 -2.086606 3.753608 -2.763291 -0.000001 0.000002 -0.000000 1.972443 -6.882887 29.612524 5.023028 -4.642777 94.510864 2.224563 -3.972555 58.482860 -0.000002 0.000000 0.000000 0.928915 -5.629564 64.235368 5.566219 -4.567786 101.267998 0.209414 -1.382217 17.229446 -0.000000 -0.000002 0.000001 6.639932 -7.813144 71.742395 2.972927 -4.342576 68.777368 5.179546 -4.627837 96.447373 -0.000001 -0.000002 -0.000001 -17.578008 6.380930 4.725949 6.172541 2.224476 2.280399 10.814506 -0.419961 -3.301447 0.195526 -4.687412 1.948099 0.000000 0.000000 -0.000000 -5.778434 -9.599061 5.141788 12.247887 -6.815719 -1.398201 -8.307738 0.420297 -2.190044 1.178130 0.000005 -0.000000 -0.000000 -0.000001 0.000000 
0.284560 199.468765 -0.059628 0.275930 -6.879193 -1.733185 3.617623 2.158749 4.678278 3.546103 1.829613 2.371717 3.567739 1.771092 2.388421 1.870503 -0.211585 0.673190 -3.255222 0.981191 -4.278984 0.000000 -0.000000 -0.000000 0.000000 -0.000000 -0.000000 0.000000 -0.000000 -0.000000 -3.729548 -16.456067 -12.086382 -0.127951 8.687003 -71.771566 -0.000005 -41.387104 -0.000019 -3.746071 11.261671 -3.808490 -0.957655 -0.959636 -14.401157 1.863422 4.285231 -46.987405 0.755958 2.880406 -29.405587 -0.000002 0.000000 -0.000000 16.441932 0.709184 -3.147979 3.945581 39.425921 13.268040 -9.104757 -13.649424 -1.212611 -0.000001 0.000001 0.000001 -0.273588 0.475507 -8.442827 1.323026 3.709500 -39.247182 0.859567 3.056724 -31.406047 -0.000001 -0.000001 -0.000002 0.987290 5.775434 -22.006712 3.018651 5.121897 -61.005201 0.893587 3.111673 -32.038331 -0.000001 0.000001 0.000001 -0.274772 2.582781 -21.247011 3.599974 5.402088 -67.337442 0.227470 1.618204 -16.002288 -0.000002 0.000000 -0.000000 -3.340823 14.902025 14.331948 -4.153240 -22.926305 63.369047 0.000003 30.276811 0.000009 10.801898 -36.474344 6.943343 5.227173 -7.833959 61.770960 4.694417 -4.657033 90.458636 1.732762 -3.626081 51.071128 0.000000 0.000001 -0.000002 1.270285 -15.905735 -7.673764 5.817148 -1.939939 -8.543284 -1.959384 4.001231 -3.229603 0.000001 0.000002 -0.000002 2.006062 -6.887295 30.198370 5.010288 -4.643761 94.353504 2.213726 -3.965898 58.326353 -0.000000 -0.000003 -0.000003 0.999645 -5.715014 65.633555 5.565020 -4.568030 101.252944 0.209410 -1.382212 17.229422 -0.000000 0.000004 -0.000000 6.691558 -7.746730 73.029202 2.967023 -4.340291 68.699361 5.173774 -4.628482 96.375793 -0.000001 -0.000001 0.000003 -18.819227 6.198290 4.875773 8.330120 2.205472 2.333656 9.802151 -0.367242 -3.238108 0.299693 -4.752709 2.084387 0.000000 -0.000000 0.000000 -6.279645 -9.730030 5.121485 13.146545 -6.927072 -1.312026 -8.723472 0.435938 -2.189166 1.192892 0.000006 0.000001 0.000000 -0.000001 0.000000 
0.318882 199.234634 -0.146377 0.365952 -6.639746 -1.819857 3.684023 2.200693 4.807893 3.611811 1.849787 2.386963 3.633513 1.791196 2.403539 1.879908 -0.240603 0.629876 -3.485586 0.732101 -4.082410 -0.000001 0.000000 0.000001 -0.000001 0.000000 0.000001 -0.000001 0.000000 0.000001 -3.735182 -16.459916 -12.102770 0.073826 8.689119 -71.792234 0.000001 -41.816993 -0.000004 -3.128508 11.067534 -3.971456 -1.000191 -0.869767 -15.143952 2.023263 4.428553 -49.091291 0.884503 3.097138 -31.870540 0.000001 0.000001 -0.000000 16.596750 1.795641 -2.599091 3.550473 39.235431 12.550586 -9.010958 -11.403732 -1.610567 -0.000001 0.000001 -0.000002 -0.320312 0.636881 -9.924228 1.403693 3.805897 -40.478037 0.942888 3.188981 -32.935302 -0.000002 -0.000003 -0.000002 1.054635 5.875939 -23.023430 3.146409 5.190367 -62.426754 1.024667 3.311603 -34.377558 -0.000002 -0.000001 -0.000000 -0.280921 2.672261 -22.331860 3.595622 5.400284 -67.291270 0.281507 1.795873 -17.816116 -0.000001 -0.000003 0.000001 -3.335441 14.903712 14.268747 -4.111224 -22.812246 63.402945 -0.000009 30.632391 0.000006 11.087932 -36.377939 7.076246 5.345548 -7.830534 62.847596 4.695312 -4.657024 90.469653 1.732761 -3.626088 51.071151 0.000001 0.000002 -0.000003 2.188562 -15.945345 -7.919790 4.772262 -2.319018 -8.067379 -1.836897 4.262583 -3.770486 0.000001 0.000003 0.000000 2.038223 -6.895860 30.710522 5.003452 -4.644279 94.269082 2.207926 -3.962323 58.242307 -0.000000 0.000001 0.000001 1.072182 -5.799290 67.041169 5.564480 -4.568136 101.246210 0.209410 -1.382215 17.229434 -0.000001 0.000002 -0.000000 6.740960 -7.679918 74.328939 2.962566 -4.338562 68.640601 5.169567 -4.628943 96.323679 0.000000 -0.000000 0.000001 -20.470815 6.130968 5.234566 11.061968 2.034385 2.144961 8.905216 -0.367555 -3.620775 0.412256 -4.956656 2.304434 -0.000000 -0.000000 -0.000000 -6.879677 -9.966782 5.026317 14.181099 -7.008577 -1.144104 -9.202228 0.455852 -2.204115 1.182978 -0.000003 -0.000000 0.000000 -0.000001 0.000000 
0.405585 198.980972 -0.213155 0.481986 -6.291850 -1.887029 3.733671 2.238264 4.960635 3.665130 1.858733 2.389474 3.686651 1.800458 2.405933 1.887002 -0.289810 0.609262 -3.774649 0.431305 -3.962261 0.000000 -0.000000 -0.000001 0.000000 -0.000000 -0.000001 0.000000 -0.000000 -0.000001 -3.744903 -16.485063 -12.152507 0.246105 8.685694 -71.796818 -0.000019 -42.130874 -0.000037 -2.511178 10.825290 -4.197460 -1.042246 -0.785020 -15.876988 2.187951 4.565631 -51.191414 1.021717 3.307283 -34.326335 -0.000001 -0.000001 0.000001 16.734585 2.861263 -2.053677 3.200123 39.054591 11.772327 -8.809371 -9.186529 -1.983230 0.000002 0.000000 0.000001 -0.361772 0.801015 -11.390089 1.486472 3.900609 -41.709923 1.029291 3.318349 -34.457611 0.000002 -0.000002 0.000000 1.124694 5.976873 -24.035635 3.275836 5.255641 -63.848410 1.163028 3.504955 -36.704757 0.000000 -0.000000 0.000002 -0.285997 2.761497 -23.412799 3.590987 5.398346 -67.242044 0.341028 1.971419 -19.626823 -0.000002 -0.000002 0.000001 -3.336717 14.896361 14.313381 -3.962340 -22.704385 63.327506 -0.000001 31.242542 0.000007 11.538709 -36.408067 7.226834 5.464647 -7.822206 63.970356 4.695780 -4.657027 90.475370 1.732769 -3.626083 51.071114 0.000002 0.000001 -0.000002 2.963511 -16.096300 -8.324057 3.733846 -2.664926 -7.568672 -1.730250 4.611019 -4.428652 -0.000002 0.000002 -0.000001 2.072322 -6.904849 31.253323 5.000657 -4.644480 94.234522 2.205548 -3.960860 58.207979 0.000001 -0.000002 0.000000 1.149795 -5.884320 68.475966 5.564264 -4.568176 101.243443 0.209413 -1.382220 17.229434 0.000000 0.000003 0.000001 6.792163 -7.612457 75.665362 2.958705 -4.337049 68.589497 5.165984 -4.629340 96.279337 -0.000001 -0.000000 -0.000002 -22.421711 6.186042 5.809405 14.239619 1.639153 1.661659 8.053503 -0.419757 -4.541768 0.774518 -5.122793 2.976057 -0.000000 0.000000 -0.000000 -7.517331 -10.390273 4.775258 15.294076 -6.975938 -0.814001 -9.727146 0.488366 -2.279710 1.212240 0.000001 0.000000 0.000000 0.000001 -0.000000 
0.554874 198.733521 -0.231586 0.606152 -5.826850 -1.907845 3.824790 2.215371 5.068648 3.750785 1.811876 2.362914 3.771528 1.754325 2.378629 1.861855 -0.338817 0.565921 -4.205835 0.082222 -3.764240 -0.000000 -0.000000 0.000000 -0.000000 -0.000000 0.000000 -0.000000 -0.000000 0.000000 -3.752031 -16.480256 -12.183019 0.426279 8.725800 -71.791128 -0.000006 -42.504431 -0.000005 -1.909218 10.605219 -4.415354 -1.082240 -0.701265 -16.593244 2.356723 4.695941 -53.281647 1.166256 3.509274 -36.757472 -0.000001 0.000002 -0.000000 16.858478 3.890896 -1.503379 2.894837 38.885811 10.932449 -8.504520 -7.008103 -2.321859 0.000001 0.000001 0.000002 -0.397737 0.965314 -12.827775 1.571245 3.993468 -42.941410 1.117829 3.443598 -35.958798 0.000001 -0.000002 0.000001 1.199171 6.081773 -25.042204 3.406835 5.317692 -65.270039 1.307049 3.689894 -38.999690 0.000001 0.000001 0.000001 -0.290030 2.850763 -24.493294 3.585997 5.396257 -67.188953 0.405927 2.144610 -21.433955 -0.000002 0.000002 -0.000001 -3.275203 14.751725 14.050546 -4.244165 -22.423221 63.555129 0.000002 31.240281 -0.000008 12.450254 -36.154046 7.398010 5.597527 -7.810813 65.209148 4.696739 -4.657016 90.487214 1.732766 -3.626089 51.071128 0.000000 -0.000002 -0.000001 3.586177 -16.370357 -8.890415 2.712686 -3.004506 -7.013260 -1.646799 5.143587 -5.255394 -0.000001 -0.000001 0.000000 2.110093 -6.907074 31.945300 4.998265 -4.644660 94.204913 2.203520 -3.959590 58.178554 -0.000000 0.000000 0.000001 1.241697 -5.974143 69.965268 5.563951 -4.568236 101.239468 0.209413 -1.382222 17.229437 -0.000001 -0.000001 0.000001 6.852364 -7.543491 77.080693 2.954133 -4.335264 68.529071 5.161655 -4.629815 96.225570 -0.000002 -0.000001 -0.000002 -24.458574 6.215170 6.438845 17.568563 1.127076 1.082346 7.187243 -0.515281 -6.108191 1.208329 -5.418431 4.164351 0.000000 -0.000000 0.000000 -8.146489 -10.817485 4.465134 16.381338 -7.038082 -0.530823 -10.254810 0.513655 -2.288463 1.235001 0.000004 0.000001 0.000000 0.000000 0.000000 
0.779211 198.533295 -0.166011 0.726927 -5.292612 -1.869800 3.941044 2.175031 5.125566 3.854506 1.756728 2.321281 3.874225 1.700767 2.335904 1.855454 -0.399039 0.518989 -4.712476 -0.354142 -3.476875 0.000000 0.000000 0.000000 0.000000 0.000000 0.000000 0.000000 0.000000 0.000000 -3.757418 -16.482396 -12.198749 0.585278 8.785730 -71.788348 0.000026 -42.846685 0.000046 -1.276822 10.390938 -4.580300 -1.120067 -0.618872 -17.290142 2.529119 4.819300 -55.359950 1.317273 3.702477 -39.158328 0.000001 -0.000001 0.000000 16.969892 4.878486 -0.945750 2.635232 38.729741 10.031326 -8.115352 -4.870442 -2.626974 -0.000001 -0.000001 -0.000001 -0.428135 1.129151 -14.232480 1.657951 4.084405 -44.172172 1.207973 3.564331 -37.433747 -0.000000 -0.000001 0.000000 1.278987 6.191811 -26.042716 3.539325 5.376477 -66.691702 1.455661 3.865837 -41.254961 -0.000001 -0.000002 -0.000001 -0.293071 2.940028 -25.574593 3.580608 5.393994 -67.131628 0.476118 2.315302 -23.237408 -0.000003 -0.000001 0.000001 -3.371678 15.057089 14.437871 -3.949255 -22.212361 63.133310 -0.000007 32.211370 0.000033 12.649683 -36.347101 7.600185 5.759725 -7.800011 66.599692 4.699269 -4.656991 90.518346 1.732768 -3.626084 51.071148 0.000001 -0.000002 -0.000001 4.044223 -16.729326 -9.614644 1.716897 -3.375974 -6.363997 -1.583997 5.929344 -6.289764 0.000002 -0.000001 -0.000002 2.155538 -6.902049 32.878731 4.991739 -4.645128 94.124392 2.197996 -3.956171 58.098463 -0.000001 0.000001 -0.000000 1.351680 -6.069487 71.526670 5.562690 -4.568484 101.223649 0.209412 -1.382218 17.229436 -0.000001 0.000002 0.000000 6.923272 -7.471645 78.597780 2.947109 -4.332497 68.436050 5.154670 -4.630562 96.139106 -0.000001 0.000001 0.000000 -26.300806 6.279502 7.072586 20.559885 0.511227 0.460924 6.255279 -0.597888 -7.969159 1.164135 -5.917661 4.590142 0.000000 0.000000 -0.000000 -8.686249 -11.155480 4.126656 17.300273 -7.234540 -0.342493 -10.724588 0.525396 -2.200449 1.231267 -0.000002 -0.000001 -0.000000 0.000000 0.000000 
